*******************************************************************************
                     The School In the Woods (2010) WEBRip
*******************************************************************************

-------------------------------------------------------------------------------
                              General Information
-------------------------------------------------------------------------------
Type.................: Movie



Video Format.........: AVI
Video Bitrate........: 1362
Resolution...........: 640 x 360
Color................: 8 bit
FPS..................: 24.000
Source...............: WEB 16:9
Original Format......: NTSC
Genre................: Horror
IMDb Rating..........: 4.9
Movie Information....: http://www.imdb.com/title/tt1764691/

-------------------------------------------------------------------------------
                               Post Information
-------------------------------------------------------------------------------
Posted by............: RadioResearch
Posted on............: 4/24/2013

-------------------------------------------------------------------------------
                                 Release Notes
-------------------------------------------------------------------------------
SEEDBOX SUPPORTED!!

In the fall of 2009, a group of college students ventured into the backwoods of 
Louisiana to find an abandoned school. A place with a history of violent deaths 
going back seventy years or more, before the school was even built. For a class 
project, they filmed the school to find evidence of the paranormal. To hunt for 
ghosts. They found what they were looking for. And now the school in the woods 
is going to teach them a lesson in fear. Director Tony Fox's feature film debut 
is an unconventional take on the horror film genre - - an experimental horror 
play. Filming 10 minute, one-take scenes, he's created a tense filled roller-
coaster ride with old school scares, influenced by Japanese horror films and the 
"backwoods" horror films of the seventies. As the characters relationships begin 
to break down, we're never really sure if it's simple human nature or if "the 
school" is driving them to self- destruction with an inevitable, creepy and 
shocking aftermath. 

Enjoy!
RadioResearch

General
Complete name                            : G:The School In the Woods (2010) 
WEBRipThe School In The Woods.avi
Format                                   : AVI
Format/Info                              : Audio Video Interleave
File size                                : 995 MiB
Duration                                 : 1h 42mn
Overall bit rate                         : 1 362 Kbps

Video
ID                                       : 0
Format                                   : mp43
Codec ID                                 : mp43
Duration                                 : 1h 42mn
Bit rate                                 : 1 222 Kbps
Width                                    : 640 pixels
Height                                   : 360 pixels
Display aspect ratio                     : 16:9
Frame rate                               : 24.000 fps
Bits/(Pixel*Frame)                       : 0.221
Stream size                              : 892 MiB (90%)

Audio
ID                                       : 1
Format                                   : MPEG Audio
Format version                           : Version 1
Format profile                           : Layer 3
Mode                                     : Joint stereo
Mode extension                           : MS Stereo
Codec ID                                 : 55
Codec ID/Hint                            : MP3
Duration                                 : 1h 42mn
Bit rate mode                            : Constant
Bit rate                                 : 128 Kbps
Channel(s)                               : 2 channels
Sampling rate                            : 44.1 KHz
Compression mode                         : Lossy
Stream size                              : 93.5 MiB (9%)
Alignment                                : Aligned on interleaves
Interleave, duration                     : 26 ms (0.63 video frame)
Writing library                          : LAME3.98.2




-------------------------------------------------------------------------------
Generated with Cool NFO Creator - http://fly.to/coolbeans
-------------------------------------------------------------------------------
